<mxfile host="app.diagrams.net" agent="Mozilla/5.0 (Windows NT 10.0; Win64; x64) AppleWebKit/537.36 (KHTML, like Gecko) Chrome/140.0.0.0 Safari/537.36" version="28.2.5" pages="2">
  <diagram id="componentes" name="Diagrama de Componentes">
    <mxGraphModel dx="3009" dy="956" grid="1" gridSize="10" guides="1" tooltips="1" connect="1" arrows="1" fold="1" page="1" pageScale="1" pageWidth="827" pageHeight="1169" math="0" shadow="0">
      <root>
        <mxCell id="0" />
        <mxCell id="1" parent="0" />
        <mxCell id="a5J6ilfrJ_KygMbX_sq6-47" value="Domínio de Utilizador &amp;amp; Identidade" style="shape=folder;fontStyle=1;spacingTop=10;tabWidth=40;tabHeight=14;tabPosition=left;html=1;whiteSpace=wrap;align=left;verticalAlign=top;fontFamily=Helvetica;fontSize=12;strokeColor=light-dark(#000000,#FFCC00);" parent="1" vertex="1">
          <mxGeometry x="91" y="600" width="550" height="250" as="geometry" />
        </mxCell>
        <mxCell id="a5J6ilfrJ_KygMbX_sq6-48" value="Serviço de&amp;nbsp;&lt;div&gt;Autenticação&lt;/div&gt;" style="html=1;dropTarget=0;whiteSpace=wrap;align=left;verticalAlign=top;fontFamily=Helvetica;fontSize=12;fontColor=default;fillColor=none;gradientColor=none;" parent="1" vertex="1">
          <mxGeometry x="111" y="660" width="100" height="60" as="geometry" />
        </mxCell>
        <mxCell id="a5J6ilfrJ_KygMbX_sq6-49" value="" style="shape=module;jettyWidth=8;jettyHeight=4;align=left;verticalAlign=top;fontFamily=Helvetica;fontSize=12;fontColor=default;fillColor=none;gradientColor=none;" parent="a5J6ilfrJ_KygMbX_sq6-48" vertex="1">
          <mxGeometry x="1" width="20" height="20" relative="1" as="geometry">
            <mxPoint x="-27" y="7" as="offset" />
          </mxGeometry>
        </mxCell>
        <mxCell id="a5J6ilfrJ_KygMbX_sq6-55" value="" style="endArrow=none;endSize=10;html=1;rounded=0;fontFamily=Helvetica;fontSize=12;fontColor=default;exitX=0.5;exitY=1;exitDx=0;exitDy=0;startArrow=none;startFill=0;endFill=0;entryX=0;entryY=0.5;entryDx=0;entryDy=0;entryPerimeter=0;" parent="1" source="a5J6ilfrJ_KygMbX_sq6-48" target="a5J6ilfrJ_KygMbX_sq6-69" edge="1">
          <mxGeometry width="160" relative="1" as="geometry">
            <mxPoint x="151.48000000000047" y="720" as="sourcePoint" />
            <mxPoint x="151" y="780" as="targetPoint" />
          </mxGeometry>
        </mxCell>
        <mxCell id="a5J6ilfrJ_KygMbX_sq6-56" value="IAuth" style="edgeLabel;html=1;align=center;verticalAlign=middle;resizable=0;points=[];fontFamily=Helvetica;fontSize=12;fontColor=default;fillColor=none;gradientColor=none;" parent="a5J6ilfrJ_KygMbX_sq6-55" vertex="1" connectable="0">
          <mxGeometry x="-0.3114" relative="1" as="geometry">
            <mxPoint y="6" as="offset" />
          </mxGeometry>
        </mxCell>
        <mxCell id="a5J6ilfrJ_KygMbX_sq6-69" value="" style="shape=providedRequiredInterface;html=1;verticalLabelPosition=bottom;sketch=0;align=left;verticalAlign=top;fontFamily=Helvetica;fontSize=12;fontColor=default;fillColor=none;gradientColor=none;rotation=90;" parent="1" vertex="1">
          <mxGeometry x="151" y="760" width="20" height="20" as="geometry" />
        </mxCell>
        <mxCell id="a5J6ilfrJ_KygMbX_sq6-71" value="&lt;b&gt;Serviço de Alunos&lt;/b&gt;" style="html=1;dropTarget=0;whiteSpace=wrap;align=left;verticalAlign=top;fontFamily=Helvetica;fontSize=12;fontColor=default;fillColor=none;gradientColor=none;" parent="1" vertex="1">
          <mxGeometry x="234.26" y="660" width="100" height="60" as="geometry" />
        </mxCell>
        <mxCell id="a5J6ilfrJ_KygMbX_sq6-72" value="" style="shape=module;jettyWidth=8;jettyHeight=4;align=left;verticalAlign=top;fontFamily=Helvetica;fontSize=12;fontColor=default;fillColor=none;gradientColor=none;" parent="a5J6ilfrJ_KygMbX_sq6-71" vertex="1">
          <mxGeometry x="1" width="20" height="20" relative="1" as="geometry">
            <mxPoint x="-27" y="7" as="offset" />
          </mxGeometry>
        </mxCell>
        <mxCell id="a5J6ilfrJ_KygMbX_sq6-57" value="" style="shape=providedRequiredInterface;html=1;verticalLabelPosition=bottom;sketch=0;align=left;verticalAlign=top;fontFamily=Helvetica;fontSize=12;fontColor=default;fillColor=none;gradientColor=none;rotation=90;" parent="1" vertex="1">
          <mxGeometry x="274.26" y="761" width="20" height="20" as="geometry" />
        </mxCell>
        <mxCell id="a5J6ilfrJ_KygMbX_sq6-73" style="edgeStyle=orthogonalEdgeStyle;rounded=0;orthogonalLoop=1;jettySize=auto;html=1;entryX=0;entryY=0.5;entryDx=0;entryDy=0;entryPerimeter=0;fontFamily=Helvetica;fontSize=12;fontColor=default;endArrow=none;endFill=0;" parent="1" source="a5J6ilfrJ_KygMbX_sq6-71" edge="1">
          <mxGeometry relative="1" as="geometry">
            <mxPoint x="284.26" y="760" as="targetPoint" />
          </mxGeometry>
        </mxCell>
        <mxCell id="a5J6ilfrJ_KygMbX_sq6-74" value="&lt;span style=&quot;font-family: monospace;&quot;&gt;IAluno&lt;/span&gt;" style="edgeLabel;html=1;align=center;verticalAlign=middle;resizable=0;points=[];fontFamily=Helvetica;fontSize=12;fontColor=default;fillColor=none;gradientColor=none;labelBackgroundColor=default;" parent="a5J6ilfrJ_KygMbX_sq6-73" vertex="1" connectable="0">
          <mxGeometry x="0.4083" relative="1" as="geometry">
            <mxPoint y="-8" as="offset" />
          </mxGeometry>
        </mxCell>
        <mxCell id="a5J6ilfrJ_KygMbX_sq6-76" style="edgeStyle=orthogonalEdgeStyle;rounded=0;orthogonalLoop=1;jettySize=auto;html=1;fontFamily=Helvetica;fontSize=12;fontColor=default;" parent="1" edge="1">
          <mxGeometry relative="1" as="geometry">
            <mxPoint x="1569.0300000000007" y="706" as="sourcePoint" />
            <mxPoint x="1569.0300000000007" y="726" as="targetPoint" />
          </mxGeometry>
        </mxCell>
        <mxCell id="a5J6ilfrJ_KygMbX_sq6-77" value="Serviço de Professores" style="html=1;dropTarget=0;whiteSpace=wrap;align=left;verticalAlign=top;fontFamily=Helvetica;fontSize=12;fontColor=default;fillColor=none;gradientColor=none;" parent="1" vertex="1">
          <mxGeometry x="361" y="661" width="100" height="60" as="geometry" />
        </mxCell>
        <mxCell id="a5J6ilfrJ_KygMbX_sq6-78" value="" style="shape=module;jettyWidth=8;jettyHeight=4;align=left;verticalAlign=top;fontFamily=Helvetica;fontSize=12;fontColor=default;fillColor=none;gradientColor=none;" parent="a5J6ilfrJ_KygMbX_sq6-77" vertex="1">
          <mxGeometry x="1" width="20" height="20" relative="1" as="geometry">
            <mxPoint x="-27" y="7" as="offset" />
          </mxGeometry>
        </mxCell>
        <mxCell id="a5J6ilfrJ_KygMbX_sq6-80" style="edgeStyle=orthogonalEdgeStyle;rounded=0;orthogonalLoop=1;jettySize=auto;html=1;entryX=0.5;entryY=1;entryDx=0;entryDy=0;fontFamily=Helvetica;fontSize=12;fontColor=default;endArrow=none;endFill=0;" parent="1" source="a5J6ilfrJ_KygMbX_sq6-79" target="a5J6ilfrJ_KygMbX_sq6-77" edge="1">
          <mxGeometry relative="1" as="geometry" />
        </mxCell>
        <mxCell id="a5J6ilfrJ_KygMbX_sq6-81" value="IProfessor" style="edgeLabel;html=1;align=center;verticalAlign=middle;resizable=0;points=[];fontFamily=Helvetica;fontSize=12;fontColor=default;fillColor=none;gradientColor=none;" parent="a5J6ilfrJ_KygMbX_sq6-80" vertex="1" connectable="0">
          <mxGeometry x="0.0173" y="2" relative="1" as="geometry">
            <mxPoint as="offset" />
          </mxGeometry>
        </mxCell>
        <mxCell id="a5J6ilfrJ_KygMbX_sq6-79" value="" style="shape=providedRequiredInterface;html=1;verticalLabelPosition=bottom;sketch=0;align=left;verticalAlign=top;fontFamily=Helvetica;fontSize=12;fontColor=default;fillColor=none;gradientColor=none;rotation=90;" parent="1" vertex="1">
          <mxGeometry x="401" y="761" width="20" height="20" as="geometry" />
        </mxCell>
        <mxCell id="a5J6ilfrJ_KygMbX_sq6-82" value="Núcleo Transacional" style="shape=folder;fontStyle=1;spacingTop=10;tabWidth=40;tabHeight=14;tabPosition=left;html=1;whiteSpace=wrap;align=left;verticalAlign=top;fontFamily=Helvetica;fontSize=12;strokeColor=light-dark(#000000,#FFCC00);" parent="1" vertex="1">
          <mxGeometry x="-314" y="600" width="330" height="250" as="geometry" />
        </mxCell>
        <mxCell id="a5J6ilfrJ_KygMbX_sq6-83" value="Serviço de Carteira" style="html=1;dropTarget=0;whiteSpace=wrap;align=left;verticalAlign=top;fontFamily=Helvetica;fontSize=12;fontColor=default;fillColor=none;gradientColor=none;" parent="1" vertex="1">
          <mxGeometry x="-274" y="660" width="100" height="60" as="geometry" />
        </mxCell>
        <mxCell id="a5J6ilfrJ_KygMbX_sq6-84" value="" style="shape=module;jettyWidth=8;jettyHeight=4;align=left;verticalAlign=top;fontFamily=Helvetica;fontSize=12;fontColor=default;fillColor=none;gradientColor=none;" parent="a5J6ilfrJ_KygMbX_sq6-83" vertex="1">
          <mxGeometry x="1" width="20" height="20" relative="1" as="geometry">
            <mxPoint x="-27" y="7" as="offset" />
          </mxGeometry>
        </mxCell>
        <mxCell id="a5J6ilfrJ_KygMbX_sq6-97" style="edgeStyle=orthogonalEdgeStyle;rounded=0;orthogonalLoop=1;jettySize=auto;html=1;entryX=0.25;entryY=1;entryDx=0;entryDy=0;fontFamily=Helvetica;fontSize=12;fontColor=default;endArrow=none;endFill=0;" parent="1" source="a5J6ilfrJ_KygMbX_sq6-85" target="a5J6ilfrJ_KygMbX_sq6-83" edge="1">
          <mxGeometry relative="1" as="geometry" />
        </mxCell>
        <mxCell id="a5J6ilfrJ_KygMbX_sq6-98" value="&lt;code&gt;IWallet&lt;/code&gt;" style="edgeLabel;html=1;align=center;verticalAlign=middle;resizable=0;points=[];fontFamily=Helvetica;fontSize=12;fontColor=default;fillColor=none;gradientColor=none;" parent="a5J6ilfrJ_KygMbX_sq6-97" vertex="1" connectable="0">
          <mxGeometry x="0.0404" relative="1" as="geometry">
            <mxPoint as="offset" />
          </mxGeometry>
        </mxCell>
        <mxCell id="a5J6ilfrJ_KygMbX_sq6-85" value="" style="shape=providedRequiredInterface;html=1;verticalLabelPosition=bottom;sketch=0;align=left;verticalAlign=top;fontFamily=Helvetica;fontSize=12;fontColor=default;fillColor=none;gradientColor=none;rotation=90;" parent="1" vertex="1">
          <mxGeometry x="-258.72" y="750" width="20" height="20" as="geometry" />
        </mxCell>
        <mxCell id="a5J6ilfrJ_KygMbX_sq6-87" value="" style="shape=providedRequiredInterface;html=1;verticalLabelPosition=bottom;sketch=0;align=left;verticalAlign=top;fontFamily=Helvetica;fontSize=12;fontColor=default;fillColor=none;gradientColor=none;rotation=90;" parent="1" vertex="1">
          <mxGeometry x="-204" y="780" width="20" height="20" as="geometry" />
        </mxCell>
        <mxCell id="a5J6ilfrJ_KygMbX_sq6-99" style="edgeStyle=orthogonalEdgeStyle;rounded=0;orthogonalLoop=1;jettySize=auto;html=1;entryX=0.802;entryY=0.991;entryDx=0;entryDy=0;entryPerimeter=0;fontFamily=Helvetica;fontSize=12;fontColor=default;endArrow=none;endFill=0;" parent="1" source="a5J6ilfrJ_KygMbX_sq6-87" target="a5J6ilfrJ_KygMbX_sq6-83" edge="1">
          <mxGeometry relative="1" as="geometry" />
        </mxCell>
        <mxCell id="a5J6ilfrJ_KygMbX_sq6-100" value="&lt;font style=&quot;font-size: 8px;&quot;&gt;IWalletHoldCommit&lt;/font&gt;" style="edgeLabel;html=1;align=center;verticalAlign=middle;resizable=0;points=[];fontFamily=Helvetica;fontSize=12;fontColor=default;fillColor=none;gradientColor=none;" parent="a5J6ilfrJ_KygMbX_sq6-99" vertex="1" connectable="0">
          <mxGeometry x="0.0335" relative="1" as="geometry">
            <mxPoint y="6" as="offset" />
          </mxGeometry>
        </mxCell>
        <mxCell id="a5J6ilfrJ_KygMbX_sq6-101" value="Serviço de Transações" style="html=1;dropTarget=0;whiteSpace=wrap;align=left;verticalAlign=top;fontFamily=Helvetica;fontSize=12;fontColor=default;fillColor=none;gradientColor=none;" parent="1" vertex="1">
          <mxGeometry x="-121.98000000000002" y="660" width="100" height="60" as="geometry" />
        </mxCell>
        <mxCell id="a5J6ilfrJ_KygMbX_sq6-102" value="" style="shape=module;jettyWidth=8;jettyHeight=4;align=left;verticalAlign=top;fontFamily=Helvetica;fontSize=12;fontColor=default;fillColor=none;gradientColor=none;" parent="a5J6ilfrJ_KygMbX_sq6-101" vertex="1">
          <mxGeometry x="1" width="20" height="20" relative="1" as="geometry">
            <mxPoint x="-27" y="7" as="offset" />
          </mxGeometry>
        </mxCell>
        <mxCell id="a5J6ilfrJ_KygMbX_sq6-104" style="edgeStyle=orthogonalEdgeStyle;rounded=0;orthogonalLoop=1;jettySize=auto;html=1;entryX=0.5;entryY=1;entryDx=0;entryDy=0;fontFamily=Helvetica;fontSize=12;fontColor=default;endArrow=none;endFill=0;" parent="1" edge="1">
          <mxGeometry relative="1" as="geometry">
            <mxPoint x="-86.99999999999955" y="770" as="sourcePoint" />
            <mxPoint x="-87" y="720" as="targetPoint" />
          </mxGeometry>
        </mxCell>
        <mxCell id="a5J6ilfrJ_KygMbX_sq6-105" value="&lt;font style=&quot;font-size: 10px;&quot;&gt;ITransactionLedge&lt;/font&gt;" style="edgeLabel;html=1;align=center;verticalAlign=middle;resizable=0;points=[];fontFamily=Helvetica;fontSize=12;fontColor=default;fillColor=none;gradientColor=none;" parent="a5J6ilfrJ_KygMbX_sq6-104" vertex="1" connectable="0">
          <mxGeometry x="-0.0602" y="1" relative="1" as="geometry">
            <mxPoint as="offset" />
          </mxGeometry>
        </mxCell>
        <mxCell id="a5J6ilfrJ_KygMbX_sq6-103" value="" style="shape=providedRequiredInterface;html=1;verticalLabelPosition=bottom;sketch=0;align=left;verticalAlign=top;fontFamily=Helvetica;fontSize=12;fontColor=default;fillColor=none;gradientColor=none;rotation=90;" parent="1" vertex="1">
          <mxGeometry x="-96.98000000000002" y="770" width="20" height="20" as="geometry" />
        </mxCell>
        <mxCell id="P5afnQaBdU3moMB-7po9-1" value="Ecossistema de Vantagens" style="shape=folder;fontStyle=1;spacingTop=10;tabWidth=40;tabHeight=14;tabPosition=left;html=1;whiteSpace=wrap;align=left;verticalAlign=top;fontFamily=Helvetica;fontSize=12;strokeColor=light-dark(#000000,#FFCC00);" parent="1" vertex="1">
          <mxGeometry x="294.26" y="300" width="320" height="250" as="geometry" />
        </mxCell>
        <mxCell id="P5afnQaBdU3moMB-7po9-7" value="Serviço de&amp;nbsp;&lt;div&gt;Resgate&lt;/div&gt;" style="html=1;dropTarget=0;whiteSpace=wrap;align=left;verticalAlign=top;fontFamily=Helvetica;fontSize=12;fontColor=default;fillColor=none;gradientColor=none;" parent="1" vertex="1">
          <mxGeometry x="334.26" y="370" width="136.74" height="60" as="geometry" />
        </mxCell>
        <mxCell id="P5afnQaBdU3moMB-7po9-8" value="" style="shape=module;jettyWidth=8;jettyHeight=4;align=left;verticalAlign=top;fontFamily=Helvetica;fontSize=12;fontColor=default;fillColor=none;gradientColor=none;" parent="P5afnQaBdU3moMB-7po9-7" vertex="1">
          <mxGeometry x="1" width="20" height="20" relative="1" as="geometry">
            <mxPoint x="-27" y="7" as="offset" />
          </mxGeometry>
        </mxCell>
        <mxCell id="P5afnQaBdU3moMB-7po9-9" value="" style="endArrow=none;endSize=10;html=1;rounded=0;fontFamily=Helvetica;fontSize=12;fontColor=default;exitX=0.5;exitY=1;exitDx=0;exitDy=0;startArrow=none;startFill=0;endFill=0;entryX=0;entryY=0.5;entryDx=0;entryDy=0;entryPerimeter=0;" parent="1" target="P5afnQaBdU3moMB-7po9-11" edge="1">
          <mxGeometry width="160" relative="1" as="geometry">
            <mxPoint x="441.00000000000057" y="430" as="sourcePoint" />
            <mxPoint x="412.63" y="490" as="targetPoint" />
          </mxGeometry>
        </mxCell>
        <mxCell id="P5afnQaBdU3moMB-7po9-10" value="IResgate" style="edgeLabel;html=1;align=center;verticalAlign=middle;resizable=0;points=[];fontFamily=Helvetica;fontSize=12;fontColor=default;fillColor=none;gradientColor=none;" parent="P5afnQaBdU3moMB-7po9-9" vertex="1" connectable="0">
          <mxGeometry x="-0.3114" relative="1" as="geometry">
            <mxPoint y="6" as="offset" />
          </mxGeometry>
        </mxCell>
        <mxCell id="P5afnQaBdU3moMB-7po9-11" value="" style="shape=providedRequiredInterface;html=1;verticalLabelPosition=bottom;sketch=0;align=left;verticalAlign=top;fontFamily=Helvetica;fontSize=12;fontColor=default;fillColor=none;gradientColor=none;rotation=90;" parent="1" vertex="1">
          <mxGeometry x="431" y="470" width="20" height="20" as="geometry" />
        </mxCell>
        <mxCell id="P5afnQaBdU3moMB-7po9-12" value="Serviço de Vantagens" style="html=1;dropTarget=0;whiteSpace=wrap;align=left;verticalAlign=top;fontFamily=Helvetica;fontSize=12;fontColor=default;fillColor=none;gradientColor=none;" parent="1" vertex="1">
          <mxGeometry x="484.26" y="370" width="100" height="60" as="geometry" />
        </mxCell>
        <mxCell id="P5afnQaBdU3moMB-7po9-13" value="" style="shape=module;jettyWidth=8;jettyHeight=4;align=left;verticalAlign=top;fontFamily=Helvetica;fontSize=12;fontColor=default;fillColor=none;gradientColor=none;" parent="P5afnQaBdU3moMB-7po9-12" vertex="1">
          <mxGeometry x="1" width="20" height="20" relative="1" as="geometry">
            <mxPoint x="-27" y="7" as="offset" />
          </mxGeometry>
        </mxCell>
        <mxCell id="P5afnQaBdU3moMB-7po9-14" value="" style="endArrow=none;endSize=10;html=1;rounded=0;fontFamily=Helvetica;fontSize=12;fontColor=default;exitX=0.5;exitY=1;exitDx=0;exitDy=0;startArrow=none;startFill=0;endFill=0;entryX=0;entryY=0.5;entryDx=0;entryDy=0;entryPerimeter=0;" parent="1" source="P5afnQaBdU3moMB-7po9-12" target="P5afnQaBdU3moMB-7po9-16" edge="1">
          <mxGeometry width="160" relative="1" as="geometry">
            <mxPoint x="524.7400000000005" y="430" as="sourcePoint" />
            <mxPoint x="524.26" y="490" as="targetPoint" />
          </mxGeometry>
        </mxCell>
        <mxCell id="P5afnQaBdU3moMB-7po9-15" value="IVantagens" style="edgeLabel;html=1;align=center;verticalAlign=middle;resizable=0;points=[];fontFamily=Helvetica;fontSize=12;fontColor=default;fillColor=none;gradientColor=none;" parent="P5afnQaBdU3moMB-7po9-14" vertex="1" connectable="0">
          <mxGeometry x="-0.3114" relative="1" as="geometry">
            <mxPoint y="6" as="offset" />
          </mxGeometry>
        </mxCell>
        <mxCell id="P5afnQaBdU3moMB-7po9-16" value="" style="shape=providedRequiredInterface;html=1;verticalLabelPosition=bottom;sketch=0;align=left;verticalAlign=top;fontFamily=Helvetica;fontSize=12;fontColor=default;fillColor=none;gradientColor=none;rotation=90;" parent="1" vertex="1">
          <mxGeometry x="524.26" y="470" width="20" height="20" as="geometry" />
        </mxCell>
        <mxCell id="HpXnNvozaQ-m6kZkoknk-1" value="Infraestrutura de Suporte" style="shape=folder;fontStyle=1;spacingTop=10;tabWidth=40;tabHeight=14;tabPosition=left;html=1;whiteSpace=wrap;align=left;verticalAlign=top;fontFamily=Helvetica;fontSize=12;strokeColor=light-dark(#000000,#FFCC00);" vertex="1" parent="1">
          <mxGeometry x="691" y="600" width="450" height="250" as="geometry" />
        </mxCell>
        <mxCell id="HpXnNvozaQ-m6kZkoknk-6" value="Barramento&amp;nbsp;&lt;span style=&quot;background-color: transparent; color: light-dark(rgb(0, 0, 0), rgb(255, 255, 255));&quot;&gt;de Mensagens&lt;/span&gt;" style="html=1;dropTarget=0;whiteSpace=wrap;align=left;verticalAlign=top;fontFamily=Helvetica;fontSize=12;fontColor=default;fillColor=none;gradientColor=none;" vertex="1" parent="1">
          <mxGeometry x="721" y="665" width="140" height="60" as="geometry" />
        </mxCell>
        <mxCell id="HpXnNvozaQ-m6kZkoknk-7" value="" style="shape=module;jettyWidth=8;jettyHeight=4;align=left;verticalAlign=top;fontFamily=Helvetica;fontSize=12;fontColor=default;fillColor=none;gradientColor=none;" vertex="1" parent="HpXnNvozaQ-m6kZkoknk-6">
          <mxGeometry x="1" width="20" height="20" relative="1" as="geometry">
            <mxPoint x="-27" y="7" as="offset" />
          </mxGeometry>
        </mxCell>
        <mxCell id="HpXnNvozaQ-m6kZkoknk-8" value="" style="endArrow=none;endSize=10;html=1;rounded=0;fontFamily=Helvetica;fontSize=12;fontColor=default;exitX=0.5;exitY=1;exitDx=0;exitDy=0;startArrow=none;startFill=0;endFill=0;entryX=0;entryY=0.5;entryDx=0;entryDy=0;entryPerimeter=0;" edge="1" parent="1" target="HpXnNvozaQ-m6kZkoknk-10">
          <mxGeometry width="160" relative="1" as="geometry">
            <mxPoint x="741" y="726" as="sourcePoint" />
            <mxPoint x="711" y="786" as="targetPoint" />
          </mxGeometry>
        </mxCell>
        <mxCell id="HpXnNvozaQ-m6kZkoknk-9" value="&lt;code&gt;&lt;font style=&quot;font-size: 7px;&quot;&gt;IMessageBrokerPublisher&lt;/font&gt;&lt;/code&gt;" style="edgeLabel;html=1;align=center;verticalAlign=middle;resizable=0;points=[];fontFamily=Helvetica;fontSize=12;fontColor=default;fillColor=none;gradientColor=none;" vertex="1" connectable="0" parent="HpXnNvozaQ-m6kZkoknk-8">
          <mxGeometry x="-0.3114" relative="1" as="geometry">
            <mxPoint y="6" as="offset" />
          </mxGeometry>
        </mxCell>
        <mxCell id="HpXnNvozaQ-m6kZkoknk-28" style="edgeStyle=orthogonalEdgeStyle;rounded=0;orthogonalLoop=1;jettySize=auto;html=1;entryX=0;entryY=0.5;entryDx=0;entryDy=0;endArrow=none;endFill=0;exitX=1;exitY=0.5;exitDx=0;exitDy=0;exitPerimeter=0;" edge="1" parent="1" source="HpXnNvozaQ-m6kZkoknk-26" target="HpXnNvozaQ-m6kZkoknk-18">
          <mxGeometry relative="1" as="geometry">
            <Array as="points">
              <mxPoint x="841" y="820" />
              <mxPoint x="891" y="820" />
              <mxPoint x="891" y="695" />
            </Array>
          </mxGeometry>
        </mxCell>
        <mxCell id="HpXnNvozaQ-m6kZkoknk-10" value="" style="shape=providedRequiredInterface;html=1;verticalLabelPosition=bottom;sketch=0;align=left;verticalAlign=top;fontFamily=Helvetica;fontSize=12;fontColor=default;fillColor=none;gradientColor=none;rotation=90;" vertex="1" parent="1">
          <mxGeometry x="731" y="761" width="20" height="20" as="geometry" />
        </mxCell>
        <mxCell id="HpXnNvozaQ-m6kZkoknk-18" value="Serviço de Notificações" style="html=1;dropTarget=0;whiteSpace=wrap;align=left;verticalAlign=top;fontFamily=Helvetica;fontSize=12;fontColor=default;fillColor=none;gradientColor=none;" vertex="1" parent="1">
          <mxGeometry x="901" y="665" width="100" height="60" as="geometry" />
        </mxCell>
        <mxCell id="HpXnNvozaQ-m6kZkoknk-19" value="" style="shape=module;jettyWidth=8;jettyHeight=4;align=left;verticalAlign=top;fontFamily=Helvetica;fontSize=12;fontColor=default;fillColor=none;gradientColor=none;" vertex="1" parent="HpXnNvozaQ-m6kZkoknk-18">
          <mxGeometry x="1" width="20" height="20" relative="1" as="geometry">
            <mxPoint x="-27" y="7" as="offset" />
          </mxGeometry>
        </mxCell>
        <mxCell id="HpXnNvozaQ-m6kZkoknk-20" value="" style="endArrow=none;endSize=10;html=1;rounded=0;fontFamily=Helvetica;fontSize=12;fontColor=default;exitX=0.5;exitY=1;exitDx=0;exitDy=0;startArrow=none;startFill=0;endFill=0;entryX=0;entryY=0.5;entryDx=0;entryDy=0;entryPerimeter=0;" edge="1" parent="1" target="HpXnNvozaQ-m6kZkoknk-22">
          <mxGeometry width="160" relative="1" as="geometry">
            <mxPoint x="941" y="725" as="sourcePoint" />
            <mxPoint x="871" y="785" as="targetPoint" />
          </mxGeometry>
        </mxCell>
        <mxCell id="HpXnNvozaQ-m6kZkoknk-21" value="&lt;code&gt;&lt;font style=&quot;font-size: 11px;&quot;&gt;INotification&lt;/font&gt;&lt;/code&gt;" style="edgeLabel;html=1;align=center;verticalAlign=middle;resizable=0;points=[];fontFamily=Helvetica;fontSize=12;fontColor=default;fillColor=none;gradientColor=none;" vertex="1" connectable="0" parent="HpXnNvozaQ-m6kZkoknk-20">
          <mxGeometry x="-0.3114" relative="1" as="geometry">
            <mxPoint y="6" as="offset" />
          </mxGeometry>
        </mxCell>
        <mxCell id="HpXnNvozaQ-m6kZkoknk-22" value="" style="shape=providedRequiredInterface;html=1;verticalLabelPosition=bottom;sketch=0;align=left;verticalAlign=top;fontFamily=Helvetica;fontSize=12;fontColor=default;fillColor=none;gradientColor=none;rotation=90;" vertex="1" parent="1">
          <mxGeometry x="931" y="765" width="20" height="20" as="geometry" />
        </mxCell>
        <mxCell id="HpXnNvozaQ-m6kZkoknk-24" value="" style="endArrow=none;endSize=10;html=1;rounded=0;fontFamily=Helvetica;fontSize=12;fontColor=default;startArrow=none;startFill=0;endFill=0;entryX=0;entryY=0.5;entryDx=0;entryDy=0;entryPerimeter=0;exitX=0.856;exitY=1.001;exitDx=0;exitDy=0;exitPerimeter=0;" edge="1" parent="1" target="HpXnNvozaQ-m6kZkoknk-26" source="HpXnNvozaQ-m6kZkoknk-6">
          <mxGeometry width="160" relative="1" as="geometry">
            <mxPoint x="841" y="730" as="sourcePoint" />
            <mxPoint x="811" y="790" as="targetPoint" />
          </mxGeometry>
        </mxCell>
        <mxCell id="HpXnNvozaQ-m6kZkoknk-25" value="&lt;code&gt;&lt;font style=&quot;font-size: 7px;&quot;&gt;IMessageBrokerConsumer&lt;/font&gt;&lt;/code&gt;" style="edgeLabel;html=1;align=center;verticalAlign=middle;resizable=0;points=[];fontFamily=Helvetica;fontSize=12;fontColor=default;fillColor=none;gradientColor=none;" vertex="1" connectable="0" parent="HpXnNvozaQ-m6kZkoknk-24">
          <mxGeometry x="-0.3114" relative="1" as="geometry">
            <mxPoint y="6" as="offset" />
          </mxGeometry>
        </mxCell>
        <mxCell id="HpXnNvozaQ-m6kZkoknk-26" value="" style="shape=providedRequiredInterface;html=1;verticalLabelPosition=bottom;sketch=0;align=left;verticalAlign=top;fontFamily=Helvetica;fontSize=12;fontColor=default;fillColor=none;gradientColor=none;rotation=90;" vertex="1" parent="1">
          <mxGeometry x="831" y="765" width="20" height="20" as="geometry" />
        </mxCell>
        <mxCell id="HpXnNvozaQ-m6kZkoknk-35" value="Agendador" style="html=1;dropTarget=0;whiteSpace=wrap;align=left;verticalAlign=top;fontFamily=Helvetica;fontSize=12;fontColor=default;fillColor=none;gradientColor=none;" vertex="1" parent="1">
          <mxGeometry x="1021" y="665" width="100" height="60" as="geometry" />
        </mxCell>
        <mxCell id="HpXnNvozaQ-m6kZkoknk-36" value="" style="shape=module;jettyWidth=8;jettyHeight=4;align=left;verticalAlign=top;fontFamily=Helvetica;fontSize=12;fontColor=default;fillColor=none;gradientColor=none;" vertex="1" parent="HpXnNvozaQ-m6kZkoknk-35">
          <mxGeometry x="1" width="20" height="20" relative="1" as="geometry">
            <mxPoint x="-27" y="7" as="offset" />
          </mxGeometry>
        </mxCell>
        <mxCell id="HpXnNvozaQ-m6kZkoknk-41" value="Infraestrutura Passiva" style="shape=folder;fontStyle=1;spacingTop=10;tabWidth=40;tabHeight=14;tabPosition=left;html=1;whiteSpace=wrap;align=left;verticalAlign=top;fontFamily=Helvetica;fontSize=12;strokeColor=light-dark(#000000,#FFCC00);" vertex="1" parent="1">
          <mxGeometry x="-294" y="370" width="325" height="190" as="geometry" />
        </mxCell>
        <mxCell id="HpXnNvozaQ-m6kZkoknk-46" value="Bancos de&amp;nbsp;&lt;div&gt;Dados&lt;/div&gt;" style="html=1;dropTarget=0;whiteSpace=wrap;align=left;verticalAlign=top;fontFamily=Helvetica;fontSize=12;fontColor=default;fillColor=none;gradientColor=none;" vertex="1" parent="1">
          <mxGeometry x="-274" y="430" width="100" height="60" as="geometry" />
        </mxCell>
        <mxCell id="HpXnNvozaQ-m6kZkoknk-47" value="" style="shape=module;jettyWidth=8;jettyHeight=4;align=left;verticalAlign=top;fontFamily=Helvetica;fontSize=12;fontColor=default;fillColor=none;gradientColor=none;" vertex="1" parent="HpXnNvozaQ-m6kZkoknk-46">
          <mxGeometry x="1" width="20" height="20" relative="1" as="geometry">
            <mxPoint x="-27" y="7" as="offset" />
          </mxGeometry>
        </mxCell>
        <mxCell id="HpXnNvozaQ-m6kZkoknk-49" style="edgeStyle=orthogonalEdgeStyle;rounded=0;orthogonalLoop=1;jettySize=auto;html=1;endArrow=none;endFill=0;exitX=1;exitY=0.5;exitDx=0;exitDy=0;exitPerimeter=0;" edge="1" parent="1" source="a5J6ilfrJ_KygMbX_sq6-79" target="HpXnNvozaQ-m6kZkoknk-35">
          <mxGeometry relative="1" as="geometry">
            <Array as="points">
              <mxPoint x="411" y="860" />
              <mxPoint x="1071" y="860" />
            </Array>
          </mxGeometry>
        </mxCell>
        <mxCell id="HpXnNvozaQ-m6kZkoknk-50" style="edgeStyle=orthogonalEdgeStyle;rounded=0;orthogonalLoop=1;jettySize=auto;html=1;entryX=0.796;entryY=0.989;entryDx=0;entryDy=0;entryPerimeter=0;endArrow=none;endFill=0;exitX=1;exitY=0.5;exitDx=0;exitDy=0;exitPerimeter=0;" edge="1" parent="1" source="HpXnNvozaQ-m6kZkoknk-22" target="a5J6ilfrJ_KygMbX_sq6-48">
          <mxGeometry relative="1" as="geometry">
            <Array as="points">
              <mxPoint x="941" y="840" />
              <mxPoint x="191" y="840" />
            </Array>
          </mxGeometry>
        </mxCell>
        <mxCell id="HpXnNvozaQ-m6kZkoknk-57" style="edgeStyle=orthogonalEdgeStyle;rounded=0;orthogonalLoop=1;jettySize=auto;html=1;entryX=0.876;entryY=0.996;entryDx=0;entryDy=0;entryPerimeter=0;endArrow=none;endFill=0;" edge="1" parent="1" source="HpXnNvozaQ-m6kZkoknk-10" target="a5J6ilfrJ_KygMbX_sq6-101">
          <mxGeometry relative="1" as="geometry">
            <Array as="points">
              <mxPoint x="741" y="870" />
              <mxPoint x="-34" y="870" />
              <mxPoint x="-34" y="720" />
            </Array>
          </mxGeometry>
        </mxCell>
        <mxCell id="HpXnNvozaQ-m6kZkoknk-58" style="edgeStyle=orthogonalEdgeStyle;rounded=0;orthogonalLoop=1;jettySize=auto;html=1;entryX=0.987;entryY=0.617;entryDx=0;entryDy=0;entryPerimeter=0;endArrow=none;endFill=0;" edge="1" parent="1" target="a5J6ilfrJ_KygMbX_sq6-83">
          <mxGeometry relative="1" as="geometry">
            <mxPoint x="-86.99999999999955" y="790" as="sourcePoint" />
            <Array as="points">
              <mxPoint x="-87" y="800" />
              <mxPoint x="-144" y="800" />
              <mxPoint x="-144" y="697" />
            </Array>
          </mxGeometry>
        </mxCell>
        <mxCell id="HpXnNvozaQ-m6kZkoknk-59" style="edgeStyle=orthogonalEdgeStyle;rounded=0;orthogonalLoop=1;jettySize=auto;html=1;entryX=0.122;entryY=0.989;entryDx=0;entryDy=0;endArrow=none;endFill=0;entryPerimeter=0;" edge="1" parent="1" source="a5J6ilfrJ_KygMbX_sq6-87" target="P5afnQaBdU3moMB-7po9-7">
          <mxGeometry relative="1" as="geometry">
            <Array as="points">
              <mxPoint x="-194" y="820" />
              <mxPoint x="51" y="820" />
              <mxPoint x="51" y="520" />
              <mxPoint x="351" y="520" />
            </Array>
          </mxGeometry>
        </mxCell>
        <mxCell id="HpXnNvozaQ-m6kZkoknk-60" style="edgeStyle=orthogonalEdgeStyle;rounded=0;orthogonalLoop=1;jettySize=auto;html=1;entryX=0.344;entryY=1.003;entryDx=0;entryDy=0;endArrow=none;endFill=0;entryPerimeter=0;" edge="1" parent="1" source="a5J6ilfrJ_KygMbX_sq6-85" target="P5afnQaBdU3moMB-7po9-7">
          <mxGeometry relative="1" as="geometry">
            <Array as="points">
              <mxPoint x="-249" y="830" />
              <mxPoint x="71" y="830" />
              <mxPoint x="71" y="540" />
              <mxPoint x="381" y="540" />
              <mxPoint x="381" y="430" />
            </Array>
          </mxGeometry>
        </mxCell>
        <mxCell id="HpXnNvozaQ-m6kZkoknk-61" value="" style="endArrow=none;html=1;rounded=0;entryX=0.113;entryY=0.994;entryDx=0;entryDy=0;endFill=0;entryPerimeter=0;" edge="1" parent="1" target="a5J6ilfrJ_KygMbX_sq6-77">
          <mxGeometry width="50" height="50" relative="1" as="geometry">
            <mxPoint x="41" y="830" as="sourcePoint" />
            <mxPoint x="101" y="771" as="targetPoint" />
            <Array as="points">
              <mxPoint x="371" y="830" />
            </Array>
          </mxGeometry>
        </mxCell>
        <mxCell id="HpXnNvozaQ-m6kZkoknk-62" value="Persistências&lt;br&gt;(Armazenamento&amp;nbsp;&lt;br&gt;&lt;div&gt;&lt;span style=&quot;background-color: transparent; color: light-dark(rgb(0, 0, 0), rgb(255, 255, 255));&quot;&gt;Cache&amp;nbsp;&lt;/span&gt;e Gateways)&lt;/div&gt;" style="html=1;dropTarget=0;whiteSpace=wrap;align=left;verticalAlign=top;fontFamily=Helvetica;fontSize=12;fontColor=default;fillColor=none;gradientColor=none;" vertex="1" parent="1">
          <mxGeometry x="-138.72000000000003" y="430" width="129.72" height="60" as="geometry" />
        </mxCell>
        <mxCell id="HpXnNvozaQ-m6kZkoknk-63" value="" style="shape=module;jettyWidth=8;jettyHeight=4;align=left;verticalAlign=top;fontFamily=Helvetica;fontSize=12;fontColor=default;fillColor=none;gradientColor=none;" vertex="1" parent="HpXnNvozaQ-m6kZkoknk-62">
          <mxGeometry x="1" width="20" height="20" relative="1" as="geometry">
            <mxPoint x="-27" y="7" as="offset" />
          </mxGeometry>
        </mxCell>
        <mxCell id="HpXnNvozaQ-m6kZkoknk-134" style="edgeStyle=orthogonalEdgeStyle;rounded=0;orthogonalLoop=1;jettySize=auto;html=1;endArrow=none;endFill=0;" edge="1" parent="1" source="a5J6ilfrJ_KygMbX_sq6-65" target="a5J6ilfrJ_KygMbX_sq6-48">
          <mxGeometry relative="1" as="geometry">
            <Array as="points">
              <mxPoint x="-224" y="580" />
              <mxPoint x="161" y="580" />
            </Array>
          </mxGeometry>
        </mxCell>
        <mxCell id="a5J6ilfrJ_KygMbX_sq6-65" value="" style="shape=providedRequiredInterface;html=1;verticalLabelPosition=bottom;sketch=0;align=left;verticalAlign=top;fontFamily=Helvetica;fontSize=12;fontColor=default;fillColor=none;gradientColor=none;rotation=90;" parent="1" vertex="1">
          <mxGeometry x="-234" y="520" width="20" height="20" as="geometry" />
        </mxCell>
        <mxCell id="HpXnNvozaQ-m6kZkoknk-69" style="edgeStyle=orthogonalEdgeStyle;rounded=0;orthogonalLoop=1;jettySize=auto;html=1;entryX=0;entryY=0.5;entryDx=0;entryDy=0;entryPerimeter=0;endArrow=none;endFill=0;" edge="1" parent="1" source="HpXnNvozaQ-m6kZkoknk-46" target="a5J6ilfrJ_KygMbX_sq6-65">
          <mxGeometry relative="1" as="geometry" />
        </mxCell>
        <mxCell id="HpXnNvozaQ-m6kZkoknk-70" value="&lt;span style=&quot;font-family: monospace; font-size: 12px;&quot;&gt;IUserDB&lt;/span&gt;" style="edgeLabel;html=1;align=center;verticalAlign=middle;resizable=0;points=[];labelBackgroundColor=default;labelBorderColor=none;" vertex="1" connectable="0" parent="HpXnNvozaQ-m6kZkoknk-69">
          <mxGeometry x="0.3885" relative="1" as="geometry">
            <mxPoint as="offset" />
          </mxGeometry>
        </mxCell>
        <mxCell id="HpXnNvozaQ-m6kZkoknk-104" value="" style="shape=providedRequiredInterface;html=1;verticalLabelPosition=bottom;sketch=0;align=left;verticalAlign=top;fontFamily=Helvetica;fontSize=12;fontColor=default;fillColor=none;gradientColor=none;rotation=90;" vertex="1" parent="1">
          <mxGeometry x="-83.86000000000001" y="520" width="20" height="20" as="geometry" />
        </mxCell>
        <mxCell id="HpXnNvozaQ-m6kZkoknk-105" style="edgeStyle=orthogonalEdgeStyle;rounded=0;orthogonalLoop=1;jettySize=auto;html=1;entryX=0;entryY=0.5;entryDx=0;entryDy=0;entryPerimeter=0;endArrow=none;endFill=0;" edge="1" parent="1" target="HpXnNvozaQ-m6kZkoknk-104">
          <mxGeometry relative="1" as="geometry">
            <mxPoint x="-79" y="490" as="sourcePoint" />
          </mxGeometry>
        </mxCell>
        <mxCell id="HpXnNvozaQ-m6kZkoknk-154" value="&lt;span style=&quot;font-size: 8px; text-wrap-mode: wrap;&quot;&gt;ISMTPProvider&lt;/span&gt;" style="edgeLabel;html=1;align=center;verticalAlign=middle;resizable=0;points=[];" vertex="1" connectable="0" parent="HpXnNvozaQ-m6kZkoknk-105">
          <mxGeometry x="0.1195" y="-1" relative="1" as="geometry">
            <mxPoint as="offset" />
          </mxGeometry>
        </mxCell>
        <mxCell id="HpXnNvozaQ-m6kZkoknk-129" value="Serviço de Parceiros" style="html=1;dropTarget=0;whiteSpace=wrap;align=left;verticalAlign=top;fontFamily=Helvetica;fontSize=12;fontColor=default;fillColor=none;gradientColor=none;" vertex="1" parent="1">
          <mxGeometry x="491" y="660" width="100" height="60" as="geometry" />
        </mxCell>
        <mxCell id="HpXnNvozaQ-m6kZkoknk-130" value="" style="shape=module;jettyWidth=8;jettyHeight=4;align=left;verticalAlign=top;fontFamily=Helvetica;fontSize=12;fontColor=default;fillColor=none;gradientColor=none;" vertex="1" parent="HpXnNvozaQ-m6kZkoknk-129">
          <mxGeometry x="1" width="20" height="20" relative="1" as="geometry">
            <mxPoint x="-27" y="7" as="offset" />
          </mxGeometry>
        </mxCell>
        <mxCell id="HpXnNvozaQ-m6kZkoknk-131" value="" style="endArrow=none;endSize=10;html=1;rounded=0;fontFamily=Helvetica;fontSize=12;fontColor=default;exitX=0.5;exitY=1;exitDx=0;exitDy=0;startArrow=none;startFill=0;endFill=0;entryX=0;entryY=0.5;entryDx=0;entryDy=0;entryPerimeter=0;" edge="1" parent="1" source="HpXnNvozaQ-m6kZkoknk-129" target="HpXnNvozaQ-m6kZkoknk-133">
          <mxGeometry width="160" relative="1" as="geometry">
            <mxPoint x="531.4800000000005" y="720" as="sourcePoint" />
            <mxPoint x="531" y="780" as="targetPoint" />
          </mxGeometry>
        </mxCell>
        <mxCell id="HpXnNvozaQ-m6kZkoknk-132" value="IParceiro" style="edgeLabel;html=1;align=center;verticalAlign=middle;resizable=0;points=[];fontFamily=Helvetica;fontSize=12;fontColor=default;fillColor=none;gradientColor=none;" vertex="1" connectable="0" parent="HpXnNvozaQ-m6kZkoknk-131">
          <mxGeometry x="-0.3114" relative="1" as="geometry">
            <mxPoint y="6" as="offset" />
          </mxGeometry>
        </mxCell>
        <mxCell id="HpXnNvozaQ-m6kZkoknk-133" value="" style="shape=providedRequiredInterface;html=1;verticalLabelPosition=bottom;sketch=0;align=left;verticalAlign=top;fontFamily=Helvetica;fontSize=12;fontColor=default;fillColor=none;gradientColor=none;rotation=90;" vertex="1" parent="1">
          <mxGeometry x="531" y="760" width="20" height="20" as="geometry" />
        </mxCell>
        <mxCell id="HpXnNvozaQ-m6kZkoknk-135" value="" style="endArrow=none;html=1;rounded=0;entryX=0.772;entryY=-0.016;entryDx=0;entryDy=0;entryPerimeter=0;" edge="1" parent="1" target="a5J6ilfrJ_KygMbX_sq6-71">
          <mxGeometry width="50" height="50" relative="1" as="geometry">
            <mxPoint x="161" y="580" as="sourcePoint" />
            <mxPoint x="306.8600000000001" y="660.0000000000002" as="targetPoint" />
            <Array as="points">
              <mxPoint x="311" y="580" />
            </Array>
          </mxGeometry>
        </mxCell>
        <mxCell id="HpXnNvozaQ-m6kZkoknk-136" value="" style="endArrow=none;html=1;rounded=0;entryX=0.5;entryY=0;entryDx=0;entryDy=0;" edge="1" parent="1" target="a5J6ilfrJ_KygMbX_sq6-77">
          <mxGeometry width="50" height="50" relative="1" as="geometry">
            <mxPoint x="311" y="580" as="sourcePoint" />
            <mxPoint x="461" y="660" as="targetPoint" />
            <Array as="points">
              <mxPoint x="411" y="580" />
            </Array>
          </mxGeometry>
        </mxCell>
        <mxCell id="HpXnNvozaQ-m6kZkoknk-137" value="" style="endArrow=none;html=1;rounded=0;entryX=0.5;entryY=0;entryDx=0;entryDy=0;" edge="1" parent="1" target="HpXnNvozaQ-m6kZkoknk-129">
          <mxGeometry width="50" height="50" relative="1" as="geometry">
            <mxPoint x="411" y="580" as="sourcePoint" />
            <mxPoint x="501" y="671" as="targetPoint" />
            <Array as="points">
              <mxPoint x="541" y="580" />
            </Array>
          </mxGeometry>
        </mxCell>
        <mxCell id="a5J6ilfrJ_KygMbX_sq6-24" value="Cliente &amp;amp; Gateway" style="shape=folder;fontStyle=1;spacingTop=10;tabWidth=40;tabHeight=14;tabPosition=left;html=1;whiteSpace=wrap;align=left;verticalAlign=top;fontFamily=Helvetica;fontSize=12;strokeColor=light-dark(#000000,#FFCC00);" parent="1" vertex="1">
          <mxGeometry x="741" y="290" width="249" height="270" as="geometry" />
        </mxCell>
        <mxCell id="a5J6ilfrJ_KygMbX_sq6-17" value="Web UI" style="html=1;dropTarget=0;whiteSpace=wrap;align=left;verticalAlign=top;fontFamily=Helvetica;fontSize=12;fontColor=default;fillColor=none;gradientColor=none;" parent="1" vertex="1">
          <mxGeometry x="771" y="340" width="93" height="50" as="geometry" />
        </mxCell>
        <mxCell id="a5J6ilfrJ_KygMbX_sq6-18" value="" style="shape=module;jettyWidth=8;jettyHeight=4;align=left;verticalAlign=top;fontFamily=Helvetica;fontSize=12;fontColor=default;fillColor=none;gradientColor=none;" parent="a5J6ilfrJ_KygMbX_sq6-17" vertex="1">
          <mxGeometry x="1" width="20" height="20" relative="1" as="geometry">
            <mxPoint x="-27" y="7" as="offset" />
          </mxGeometry>
        </mxCell>
        <mxCell id="a5J6ilfrJ_KygMbX_sq6-33" style="edgeStyle=orthogonalEdgeStyle;rounded=0;orthogonalLoop=1;jettySize=auto;html=1;fontFamily=Helvetica;fontSize=12;fontColor=default;endArrow=none;endFill=0;dashed=1;exitX=0.5;exitY=1;exitDx=0;exitDy=0;" parent="1" source="a5J6ilfrJ_KygMbX_sq6-27" edge="1">
          <mxGeometry relative="1" as="geometry">
            <mxPoint x="864.72" y="420" as="targetPoint" />
            <Array as="points">
              <mxPoint x="925" y="420" />
            </Array>
          </mxGeometry>
        </mxCell>
        <mxCell id="a5J6ilfrJ_KygMbX_sq6-27" value="Admin&amp;nbsp;&lt;div&gt;Console&lt;/div&gt;" style="html=1;dropTarget=0;whiteSpace=wrap;align=left;verticalAlign=top;fontFamily=Helvetica;fontSize=12;fontColor=default;fillColor=none;gradientColor=none;" parent="1" vertex="1">
          <mxGeometry x="878" y="340" width="93" height="50" as="geometry" />
        </mxCell>
        <mxCell id="a5J6ilfrJ_KygMbX_sq6-28" value="" style="shape=module;jettyWidth=8;jettyHeight=4;align=left;verticalAlign=top;fontFamily=Helvetica;fontSize=12;fontColor=default;fillColor=none;gradientColor=none;" parent="a5J6ilfrJ_KygMbX_sq6-27" vertex="1">
          <mxGeometry x="1" width="20" height="20" relative="1" as="geometry">
            <mxPoint x="-27" y="7" as="offset" />
          </mxGeometry>
        </mxCell>
        <mxCell id="a5J6ilfrJ_KygMbX_sq6-30" value="" style="endArrow=open;endSize=12;dashed=1;html=1;rounded=0;fontFamily=Helvetica;fontSize=12;fontColor=default;exitX=0.5;exitY=1;exitDx=0;exitDy=0;entryX=0.5;entryY=0;entryDx=0;entryDy=0;" parent="1" source="a5J6ilfrJ_KygMbX_sq6-17" target="a5J6ilfrJ_KygMbX_sq6-31" edge="1">
          <mxGeometry width="160" relative="1" as="geometry">
            <mxPoint x="805.72" y="550" as="sourcePoint" />
            <mxPoint x="805.72" y="440" as="targetPoint" />
            <Array as="points">
              <mxPoint x="818" y="420" />
              <mxPoint x="864.72" y="420" />
            </Array>
          </mxGeometry>
        </mxCell>
        <mxCell id="a5J6ilfrJ_KygMbX_sq6-31" value="API&lt;div&gt;Gateway&lt;/div&gt;" style="html=1;dropTarget=0;whiteSpace=wrap;align=left;verticalAlign=top;fontFamily=Helvetica;fontSize=12;fontColor=default;fillColor=none;gradientColor=none;" parent="1" vertex="1">
          <mxGeometry x="817.74" y="450" width="93" height="50" as="geometry" />
        </mxCell>
        <mxCell id="a5J6ilfrJ_KygMbX_sq6-32" value="" style="shape=module;jettyWidth=8;jettyHeight=4;align=left;verticalAlign=top;fontFamily=Helvetica;fontSize=12;fontColor=default;fillColor=none;gradientColor=none;" parent="a5J6ilfrJ_KygMbX_sq6-31" vertex="1">
          <mxGeometry x="1" width="20" height="20" relative="1" as="geometry">
            <mxPoint x="-27" y="7" as="offset" />
          </mxGeometry>
        </mxCell>
        <mxCell id="a5J6ilfrJ_KygMbX_sq6-43" value="" style="endArrow=none;endSize=12;html=1;rounded=0;fontFamily=Helvetica;fontSize=12;fontColor=default;exitX=0.5;exitY=1;exitDx=0;exitDy=0;startArrow=none;startFill=0;endFill=0;" parent="1" source="HpXnNvozaQ-m6kZkoknk-96" edge="1">
          <mxGeometry width="160" relative="1" as="geometry">
            <mxPoint x="864.1" y="500" as="sourcePoint" />
            <mxPoint x="864.38" y="550" as="targetPoint" />
          </mxGeometry>
        </mxCell>
        <mxCell id="HpXnNvozaQ-m6kZkoknk-141" style="edgeStyle=orthogonalEdgeStyle;rounded=0;orthogonalLoop=1;jettySize=auto;html=1;entryX=0.009;entryY=0.627;entryDx=0;entryDy=0;entryPerimeter=0;endArrow=none;endFill=0;" edge="1" parent="1" source="P5afnQaBdU3moMB-7po9-11" target="a5J6ilfrJ_KygMbX_sq6-31">
          <mxGeometry relative="1" as="geometry">
            <Array as="points">
              <mxPoint x="441" y="520" />
              <mxPoint x="691" y="520" />
              <mxPoint x="691" y="481" />
            </Array>
          </mxGeometry>
        </mxCell>
        <mxCell id="HpXnNvozaQ-m6kZkoknk-74" value="" style="endArrow=none;html=1;rounded=0;exitX=0;exitY=0.5;exitDx=0;exitDy=0;" edge="1" parent="1" source="a5J6ilfrJ_KygMbX_sq6-31">
          <mxGeometry width="50" height="50" relative="1" as="geometry">
            <mxPoint x="831" y="500" as="sourcePoint" />
            <mxPoint x="71" y="560" as="targetPoint" />
            <Array as="points">
              <mxPoint x="681" y="475" />
              <mxPoint x="681" y="560" />
            </Array>
          </mxGeometry>
        </mxCell>
        <mxCell id="HpXnNvozaQ-m6kZkoknk-139" value="" style="endArrow=none;html=1;rounded=0;entryX=-0.005;entryY=0.403;entryDx=0;entryDy=0;entryPerimeter=0;" edge="1" parent="1" target="a5J6ilfrJ_KygMbX_sq6-31">
          <mxGeometry width="50" height="50" relative="1" as="geometry">
            <mxPoint x="671" y="860" as="sourcePoint" />
            <mxPoint x="671" y="490" as="targetPoint" />
            <Array as="points">
              <mxPoint x="671" y="470" />
            </Array>
          </mxGeometry>
        </mxCell>
        <mxCell id="HpXnNvozaQ-m6kZkoknk-73" style="edgeStyle=orthogonalEdgeStyle;rounded=0;orthogonalLoop=1;jettySize=auto;html=1;entryX=0.001;entryY=0.276;entryDx=0;entryDy=0;endArrow=none;endFill=0;entryPerimeter=0;" edge="1" parent="1" source="a5J6ilfrJ_KygMbX_sq6-69" target="a5J6ilfrJ_KygMbX_sq6-31">
          <mxGeometry relative="1" as="geometry">
            <Array as="points">
              <mxPoint x="161" y="810" />
              <mxPoint x="661" y="810" />
              <mxPoint x="661" y="464" />
            </Array>
          </mxGeometry>
        </mxCell>
        <mxCell id="HpXnNvozaQ-m6kZkoknk-48" style="edgeStyle=orthogonalEdgeStyle;rounded=0;orthogonalLoop=1;jettySize=auto;html=1;endArrow=none;endFill=0;entryX=0.001;entryY=0.201;entryDx=0;entryDy=0;entryPerimeter=0;" edge="1" parent="1" target="a5J6ilfrJ_KygMbX_sq6-31">
          <mxGeometry relative="1" as="geometry">
            <mxPoint x="284.26" y="780" as="sourcePoint" />
            <mxPoint x="801" y="465" as="targetPoint" />
            <Array as="points">
              <mxPoint x="284" y="800" />
              <mxPoint x="651" y="800" />
              <mxPoint x="651" y="460" />
              <mxPoint x="818" y="460" />
            </Array>
          </mxGeometry>
        </mxCell>
        <mxCell id="HpXnNvozaQ-m6kZkoknk-138" style="edgeStyle=orthogonalEdgeStyle;rounded=0;orthogonalLoop=1;jettySize=auto;html=1;entryX=-0.002;entryY=0.119;entryDx=0;entryDy=0;endArrow=none;endFill=0;entryPerimeter=0;" edge="1" parent="1" source="P5afnQaBdU3moMB-7po9-16" target="a5J6ilfrJ_KygMbX_sq6-31">
          <mxGeometry relative="1" as="geometry">
            <Array as="points">
              <mxPoint x="534" y="510" />
              <mxPoint x="641" y="510" />
              <mxPoint x="641" y="456" />
              <mxPoint x="811" y="456" />
            </Array>
          </mxGeometry>
        </mxCell>
        <mxCell id="HpXnNvozaQ-m6kZkoknk-149" style="edgeStyle=orthogonalEdgeStyle;rounded=0;orthogonalLoop=1;jettySize=auto;html=1;entryX=0;entryY=0.75;entryDx=0;entryDy=0;endArrow=none;endFill=0;" edge="1" parent="1" source="HpXnNvozaQ-m6kZkoknk-133" target="a5J6ilfrJ_KygMbX_sq6-31">
          <mxGeometry relative="1" as="geometry">
            <mxPoint x="691" y="520" as="targetPoint" />
            <Array as="points">
              <mxPoint x="541" y="790" />
              <mxPoint x="681" y="790" />
              <mxPoint x="681" y="570" />
              <mxPoint x="701" y="570" />
              <mxPoint x="701" y="488" />
              <mxPoint x="781" y="488" />
            </Array>
          </mxGeometry>
        </mxCell>
        <mxCell id="HpXnNvozaQ-m6kZkoknk-155" style="edgeStyle=orthogonalEdgeStyle;rounded=0;orthogonalLoop=1;jettySize=auto;html=1;endArrow=none;endFill=0;" edge="1" parent="1" source="HpXnNvozaQ-m6kZkoknk-104">
          <mxGeometry relative="1" as="geometry">
            <mxPoint x="991" y="725" as="targetPoint" />
            <Array as="points">
              <mxPoint x="-74" y="600" />
              <mxPoint x="31" y="600" />
              <mxPoint x="31" y="880" />
              <mxPoint x="991" y="880" />
            </Array>
          </mxGeometry>
        </mxCell>
        <mxCell id="HpXnNvozaQ-m6kZkoknk-156" value="" style="endArrow=none;endSize=12;html=1;rounded=0;fontFamily=Helvetica;fontSize=12;fontColor=default;exitX=0.5;exitY=1;exitDx=0;exitDy=0;startArrow=none;startFill=0;endFill=0;" edge="1" parent="1" target="HpXnNvozaQ-m6kZkoknk-96">
          <mxGeometry width="160" relative="1" as="geometry">
            <mxPoint x="864.1" y="500" as="sourcePoint" />
            <mxPoint x="864.38" y="550" as="targetPoint" />
          </mxGeometry>
        </mxCell>
        <mxCell id="HpXnNvozaQ-m6kZkoknk-157" value="IAPIRest" style="edgeLabel;html=1;align=center;verticalAlign=middle;resizable=0;points=[];fontFamily=Helvetica;fontSize=12;fontColor=default;fillColor=none;gradientColor=none;" vertex="1" connectable="0" parent="HpXnNvozaQ-m6kZkoknk-156">
          <mxGeometry x="-0.3114" relative="1" as="geometry">
            <mxPoint as="offset" />
          </mxGeometry>
        </mxCell>
        <mxCell id="HpXnNvozaQ-m6kZkoknk-96" value="" style="shape=providedRequiredInterface;html=1;verticalLabelPosition=bottom;sketch=0;align=left;verticalAlign=top;fontFamily=Helvetica;fontSize=12;fontColor=default;fillColor=none;gradientColor=none;rotation=90;" vertex="1" parent="1">
          <mxGeometry x="854.24" y="530" width="20" height="20" as="geometry" />
        </mxCell>
      </root>
    </mxGraphModel>
  </diagram>
  <diagram id="implantacao" name="Diagrama de Implantação">
    <mxGraphModel dx="1030" dy="541" grid="1" gridSize="10" guides="1" tooltips="1" connect="1" arrows="1" fold="1" page="1" pageScale="1" pageWidth="827" pageHeight="1169" math="0" shadow="0">
      <root>
        <mxCell id="0" />
        <mxCell id="1" parent="0" />
        <!-- Cliente -->
        <mxCell id="cliente" value="Cliente" style="swimlane" vertex="1" parent="1">
          <mxGeometry x="40" y="40" width="200" height="150" as="geometry" />
        </mxCell>
        <mxCell id="web" value="Navegador Web" style="rectangle" vertex="1" parent="cliente">
          <mxGeometry x="10" y="20" width="150" height="40" as="geometry" />
        </mxCell>
        <mxCell id="mobile" value="App Móvel" style="rectangle" vertex="1" parent="cliente">
          <mxGeometry x="10" y="80" width="150" height="40" as="geometry" />
        </mxCell>
        <!-- Servidor Aplicação -->
        <mxCell id="servidorApp" value="Servidor de Aplicação" style="swimlane" vertex="1" parent="1">
          <mxGeometry x="320" y="40" width="240" height="200" as="geometry" />
        </mxCell>
        <mxCell id="apis" value="APIs" style="rectangle" vertex="1" parent="servidorApp">
          <mxGeometry x="10" y="20" width="100" height="40" as="geometry" />
        </mxCell>
        <mxCell id="modulos" value="Módulos de Negócio" style="rectangle" vertex="1" parent="servidorApp">
          <mxGeometry x="10" y="80" width="150" height="40" as="geometry" />
        </mxCell>
        <!-- Servidor Banco -->
        <mxCell id="servidorDB" value="Servidor de Banco de Dados" style="swimlane" vertex="1" parent="1">
          <mxGeometry x="600" y="40" width="240" height="200" as="geometry" />
        </mxCell>
        <mxCell id="db1" value="DB Clínico" style="ellipse" vertex="1" parent="servidorDB">
          <mxGeometry x="20" y="20" width="100" height="40" as="geometry" />
        </mxCell>
        <mxCell id="db2" value="DB Usuários" style="ellipse" vertex="1" parent="servidorDB">
          <mxGeometry x="20" y="70" width="120" height="40" as="geometry" />
        </mxCell>
        <mxCell id="db3" value="DB Financeiro" style="ellipse" vertex="1" parent="servidorDB">
          <mxGeometry x="20" y="120" width="120" height="40" as="geometry" />
        </mxCell>
        <mxCell id="db4" value="DB Logs" style="ellipse" vertex="1" parent="servidorDB">
          <mxGeometry x="20" y="170" width="120" height="40" as="geometry" />
        </mxCell>
        <!-- Servidor Segurança -->
        <mxCell id="servidorSeg" value="Servidor de Segurança" style="swimlane" vertex="1" parent="1">
          <mxGeometry x="320" y="280" width="240" height="120" as="geometry" />
        </mxCell>
        <mxCell id="autenticacao" value="Autenticação Multifator" style="rectangle" vertex="1" parent="servidorSeg">
          <mxGeometry x="10" y="20" width="200" height="40" as="geometry" />
        </mxCell>
        <mxCell id="criptografia" value="Criptografia" style="rectangle" vertex="1" parent="servidorSeg">
          <mxGeometry x="10" y="70" width="120" height="40" as="geometry" />
        </mxCell>
      </root>
    </mxGraphModel>
  </diagram>
</mxfile>
